<?xml version="1.0" encoding="UTF-8" standalone="no"?>
<!-- Created with Inkscape (http://www.inkscape.org/) -->

<svg
   width="100mm"
   height="100mm"
   viewBox="0 0 100 100"
   version="1.1"
   id="svg5"
   xml:space="preserve"
   inkscape:version="1.2.2 (b0a8486541, 2022-12-01)"
   sodipodi:docname="logo.svg"
   xmlns:inkscape="http://www.inkscape.org/namespaces/inkscape"
   xmlns:sodipodi="http://sodipodi.sourceforge.net/DTD/sodipodi-0.dtd"
   xmlns="http://www.w3.org/2000/svg"
   xmlns:svg="http://www.w3.org/2000/svg"><sodipodi:namedview
     id="namedview7"
     pagecolor="#ffffff"
     bordercolor="#666666"
     borderopacity="1.0"
     inkscape:showpageshadow="2"
     inkscape:pageopacity="0.0"
     inkscape:pagecheckerboard="0"
     inkscape:deskcolor="#d1d1d1"
     inkscape:document-units="mm"
     showgrid="false"
     inkscape:zoom="1.9120741"
     inkscape:cx="89.170183"
     inkscape:cy="201.35203"
     inkscape:window-width="1920"
     inkscape:window-height="1011"
     inkscape:window-x="0"
     inkscape:window-y="0"
     inkscape:window-maximized="1"
     inkscape:current-layer="layer1" /><defs
     id="defs2" /><g
     inkscape:label="Layer 1"
     inkscape:groupmode="layer"
     id="layer1"
     transform="translate(-40.779006,-46.711421)"><ellipse
       style="fill:#e0f6e4;fill-opacity:1;stroke:none;stroke-width:0.465;stroke-dasharray:none;stroke-opacity:1"
       id="path4446"
       cx="90.761856"
       cy="96.74778"
       rx="49.541237"
       ry="49.388268" /><path
       style="fill:#195522;fill-opacity:1;stroke:#000000;stroke-width:0.465;stroke-dasharray:none;stroke-opacity:1"
       d="m 120.29085,126.22885 c -3.53681,-2.62238 -4.44362,-4.67278 -4.16963,-9.42803 0.0825,-1.43243 0.23684,-2.89109 0.3429,-3.24144 0.18898,-0.62421 0.16811,-0.63361 -1.03953,-0.46808 -1.47831,0.20263 -1.54775,-0.0516 -0.29589,-1.08353 1.29917,-1.07089 0.57194,-1.62338 -2.21961,-1.68627 l -1.37174,-0.0309 0.17089,-1.28825 c 0.11488,-0.86603 0.0752,-1.28825 -0.12098,-1.28825 -0.5086,0 -1.08801,-1.49055 -1.4032,-3.60971 -0.22913,-1.54057 -0.46075,-2.20617 -0.93158,-2.67699 -0.34465,-0.34465 -0.55728,-0.73885 -0.47252,-0.876 0.25527,-0.41303 -0.61302,-0.582954 -1.46361,-0.28644 -1.22257,0.4262 -0.97484,-0.0116 1.23054,-2.174471 l 2.0276,-1.988539 -0.81493,-2.065279 c -0.88803,-2.250565 -1.96675,-6.173997 -1.69189,-6.153611 0.0943,0.007 0.58813,0.675217 1.09745,1.48494 2.10129,3.340626 6.63476,6.631508 9.51701,6.908456 3.52513,0.338719 4.65848,-1.432745 2.75285,-4.302824 -1.458,-2.195909 -1.67766,-3.597634 -1.68239,-10.735992 -0.007,-10.006292 -1.22322,-11.855975 -8.31023,-12.63472 -2.48165,-0.272692 -3.25171,-0.64575 -5.84911,-2.833631 -3.14303,-2.647486 -4.3362,-2.603852 -6.948204,0.254096 l -1.336796,1.462668 -2.207501,-1.01944 c -3.441631,-1.589371 -7.758721,-2.430195 -6.617367,-1.288841 0.571397,0.571396 0.317103,0.653217 -1.639845,0.527627 -2.029518,-0.130246 -2.63239,0.1282 -2.020078,0.865991 0.324874,0.391448 0.155459,0.926041 -0.293465,0.926041 -0.14423,0 -1.000408,-0.766665 -1.902616,-1.703699 -2.398681,-2.491274 -3.295999,-2.572569 -5.915038,-0.535888 -3.630369,2.823136 -4.122611,3.072684 -6.597407,3.344623 -6.843658,0.752005 -8.512778,3.033633 -8.231148,11.251679 0.24687,7.203592 -0.19065,9.932986 -2.02256,12.617186 -2.18913,3.207623 1.57908,5.025424 5.953406,2.871949 2.04835,-1.008401 4.995916,-3.637698 6.458204,-5.760873 0.564735,-0.81997 1.070441,-1.359903 1.123792,-1.199849 0.151585,0.454756 -1.197348,4.912008 -1.915398,6.329011 l -0.646219,1.275249 2.099435,2.087118 c 2.304367,2.290853 2.491414,2.605533 1.302371,2.191023 -1.250632,-0.43597 -1.755796,-0.12822 -1.194837,0.72791 0.245674,0.37495 0.4074,0.70116 0.359392,0.72491 -1.087348,0.53802 -1.148046,0.65924 -1.294003,2.58417 -0.138542,1.82718 -0.686287,3.42551 -1.304944,3.80786 -0.780963,0.48266 -0.264615,1.93413 1.143987,3.21576 2.266148,2.06188 9.827469,5.8974 11.651136,5.91009 0.38255,0.003 0.457917,0.13764 0.334343,0.59875 -0.08775,0.32742 -0.161165,0.86615 -0.163152,1.19718 -0.0024,0.40467 -0.231641,0.68855 -0.699628,0.86648 -2.534758,0.96372 -4.153386,4.3754 -3.434593,7.2393 0.338789,1.34984 0.930426,0.81245 0.775068,-0.704 -0.460867,-4.49856 3.560929,-7.61821 6.66923,-5.17322 1.423186,1.11948 2.149816,4.05704 1.455359,5.8836 -0.219617,0.57764 -0.184819,0.67868 0.233725,0.67868 0.879668,0 1.151663,-3.18732 0.421185,-4.9356 -0.469201,-1.12296 -0.483317,-1.23447 -0.128511,-1.01519 0.802365,0.49589 1.372587,2.35748 1.271281,4.15033 -0.118727,2.10116 0.507537,2.52532 0.904885,0.61287 0.630275,-3.03353 -1.365898,-6.1604 -4.379444,-6.86013 -0.621088,-0.14421 -0.730575,-0.29173 -0.661458,-0.89119 l 0.08283,-0.71838 2.910416,0.0887 c 6.909284,0.21044 15.134567,-2.18727 19.818267,-5.77713 1.66557,-1.27659 1.78672,-1.32298 3.45547,-1.32298 1.88475,0 1.90317,0.0118 1.3541,0.86921 -0.35794,0.55891 -0.51521,1.25193 -0.44893,1.97818 0.0219,0.24003 0.33186,0.28566 1.10289,0.16237 1.07243,-0.17149 1.07243,-0.17149 0.87488,0.59219 -0.67689,2.61665 0.0268,7.22653 1.41875,9.29474 1.07573,1.59831 3.88592,3.77206 4.87647,3.77206 0.73968,0 0.63924,-0.11855 -1.35013,-1.59358 z m -35.731974,-7.11603 c 0,-0.7538 0.279715,-1.34455 0.636638,-1.34455 0.204705,0 0.277487,0.32508 0.207327,0.92604 -0.113871,0.9754 -0.843965,1.33745 -0.843965,0.41851 z m 2.337837,-1.99791 c -4.332494,-0.75552 -9.559586,-2.90583 -13.053885,-5.37004 -2.351889,-1.65858 -2.782787,-2.37352 -2.057675,-3.41406 0.705903,-1.01298 1.071742,-2.16794 1.285687,-4.05895 0.202959,-1.79394 0.357619,-1.93123 0.870439,-0.77269 0.993963,2.24552 5.303182,5.17614 9.162389,6.23116 3.733355,1.02062 11.090658,0.75143 14.902208,-0.54525 4.169394,-1.41843 9.571754,-5.09043 9.571754,-6.50596 0,-0.58873 0.74668,-0.88971 1.22416,-0.49344 0.19983,0.16585 0.36333,0.5451 0.36333,0.84279 0,1.57454 0.63906,3.98188 1.24969,4.70756 1.25967,1.49704 -0.625,3.69516 -5.15538,6.0128 -5.948936,3.04336 -12.903172,4.31814 -18.362717,3.36608 z m 5.708875,-8.0864 c 1.931072,-0.96361 3.043502,-2.64515 3.625657,-5.4805 0.26109,-1.27163 0.46437,-1.68923 0.881903,-1.81172 3.732622,-1.09498 7.024892,-5.06637 7.024892,-8.47396 0,-1.695113 -0.60403,-1.380008 -0.86402,0.450734 -1.19416,8.408736 -11.129958,8.047346 -12.001011,-0.436496 l -0.164815,-1.605238 1.289405,-0.488505 c 3.693972,-1.399509 5.699532,-3.978106 4.508201,-5.796306 -1.509647,-2.304011 -10.679544,-2.189782 -12.42677,0.154799 -1.164124,1.562124 0.795353,4.129942 4.208679,5.515308 l 1.492385,0.605716 -0.152881,1.345147 c -0.494919,4.354684 -2.564649,6.769108 -5.802723,6.769108 -3.34464,0 -5.751084,-2.396929 -6.24238,-6.217708 -0.229521,-1.784959 -0.996003,-1.911829 -0.868342,-0.14373 0.228661,3.166941 2.421964,6.156232 5.76598,7.858551 l 1.546836,0.78744 0.193821,1.54278 c 0.34808,2.77064 1.737735,4.81171 3.811246,5.59781 1.442617,0.54692 -2.761713,0.30561 -5.0634,-0.29062 -3.580897,-0.9276 -8.694034,-4.37605 -8.240588,-5.55771 0.09188,-0.23943 -0.01376,-0.78498 -0.234746,-1.21232 -0.43996,-0.8508 -0.270561,-0.97136 0.522258,-0.3717 2.566215,1.94098 0.986224,-1.66618 -1.96125,-4.477596 l -1.589424,-1.516052 0.521965,-1.023138 c 0.706665,-1.385178 1.705054,-4.914522 2.208826,-7.808298 0.714553,-4.104518 2.822252,-12.098551 3.644218,-13.821691 0.979564,-2.053523 1.616077,-2.470779 2.500966,-1.639469 0.587965,0.552364 0.641709,0.559885 0.812908,0.11375 0.21113,-0.550198 -0.722014,-1.453631 -1.501436,-1.453631 -1.65394,0 -3.005185,2.66066 -4.607417,9.072201 -2.035361,8.144762 -4.457272,12.078624 -9.18928,14.925961 -4.151076,2.497786 -7.533996,1.521166 -5.423676,-1.56577 1.65341,-2.418572 1.85698,-3.655819 1.88431,-11.452185 0.0273,-7.789402 0.0928,-8.096352 2.092576,-9.808091 1.21527,-1.040224 2.7983,-1.570865 5.745699,-1.92599 2.404912,-0.289761 2.955724,-0.556707 5.783826,-2.803063 1.203304,-0.955783 2.476897,-1.81034 2.830203,-1.899014 1.374783,-0.345049 4.865812,3.096344 3.929383,3.873511 -0.90763,0.753265 0.720944,2.37619 2.384462,2.37619 0.219868,0 0.399759,0.131969 0.399759,0.293266 0,0.178734 -0.251995,0.23002 -0.645242,0.13132 -1.020789,-0.256201 -1.125805,0.366775 -0.201105,1.192994 1.029719,0.920054 2.61597,1.362932 4.23413,1.182161 1.124548,-0.125629 1.173392,-0.109565 0.514821,0.169306 -0.824304,0.349051 -0.978922,0.999702 -0.237564,0.999702 1.053245,0 3.495116,-2.241713 3.113852,-2.858612 -0.103802,-0.167953 -0.651619,-0.08039 -1.489988,0.238169 -1.377051,0.523238 -4.080925,0.674237 -4.728551,0.264067 -0.410438,-0.259948 -0.340633,-0.288436 2.006229,-0.818767 1.094103,-0.24724 2.369336,-0.973417 1.897584,-1.080574 -0.0542,-0.01231 -0.99151,-0.05057 -2.082916,-0.08502 -1.380911,-0.04359 -2.386685,-0.243455 -3.307292,-0.657229 l -1.322917,-0.594594 0.661459,-0.54501 c 0.363802,-0.299755 0.998061,-0.663621 1.409464,-0.808591 0.615109,-0.216751 0.719982,-0.375239 0.590272,-0.892045 -0.122502,-0.488081 -0.05082,-0.628463 0.320884,-0.628463 0.738423,0 3.601704,0.79029 3.883859,1.071978 0.291142,0.290662 1.203854,0.340016 1.203854,0.0651 0,-0.102213 -0.386953,-0.594162 -0.859896,-1.093221 l -0.859896,-0.907379 0.79375,0.186912 c 1.34161,0.315922 4.7083,1.727527 5.749015,2.410479 1.123,0.73695 1.527027,0.809854 1.527027,0.275542 0,-0.504119 1.714018,-2.525561 2.796774,-3.298401 1.18259,-0.844099 1.71573,-0.668712 4.36578,1.436223 2.86071,2.272252 3.39628,2.525744 5.92388,2.803832 6.84218,0.752778 7.82774,2.288967 7.78221,12.130187 -0.0326,7.03979 0.17213,8.294534 1.7811,10.918 1.04552,1.704755 1.06622,2.268442 0.10208,2.779625 -2.95909,1.568886 -9.52529,-3.070678 -12.27112,-8.670541 -0.90216,-1.839875 -1.54721,-3.76775 -2.40678,-7.193162 -1.64337,-6.548791 -2.98465,-9.211004 -4.64071,-9.211004 -0.76659,0 -1.695272,0.908422 -1.486061,1.453631 0.171201,0.446135 0.224951,0.438614 0.812911,-0.11375 0.88928,-0.835431 1.52187,-0.41289 2.52332,1.685472 0.82656,1.731898 3.00546,10.105305 3.82564,14.701729 0.24668,1.382448 0.86062,3.751892 1.3643,5.265436 l 0.91578,2.751891 -1.81875,1.878317 c -2.75519,2.845409 -3.86478,5.762989 -1.51614,3.986569 1.68758,-1.27642 0.38465,1.24859 -1.49089,2.88926 -2.86312,2.50459 -8.676779,4.82446 -12.251866,4.88896 -0.79375,0.0143 -0.79375,0.0143 0.241504,-0.50227 z M 103.07971,80.766079 c 0,-2.631914 -1.66797,-4.16262 -3.479473,-3.193134 -1.065821,0.57041 -2.079202,3.947402 -1.184553,3.947402 0.216612,0 0.428757,-0.410852 0.525931,-1.018536 0.491577,-3.074162 2.746935,-3.148079 3.232495,-0.105943 0.20707,1.297325 0.9056,1.582886 0.9056,0.370211 z m -18.709191,0.569797 c 0.0686,-0.116822 -0.02201,-0.781376 -0.201369,-1.476787 -1.000977,-3.88123 -4.637357,-3.360197 -4.637357,0.664456 0,1.368764 0.606864,1.207064 0.808241,-0.215359 0.423246,-2.989561 2.290641,-3.097668 3.032593,-0.175561 0.294828,1.161152 0.720926,1.674939 0.997892,1.203251 z m 4.50506,27.155144 c -1.997188,-0.75459 -3.292879,-2.93019 -3.465528,-5.81897 l -0.119491,-1.99935 1.068877,-0.32024 c 1.316794,-0.39452 3.23397,-2.434625 3.74605,-3.986239 0.449069,-1.360699 0.627891,-1.36267 1.073706,-0.01183 0.47194,1.429991 2.069996,3.204072 3.444467,3.823869 l 1.111684,0.5013 -0.157208,1.50408 c -0.488923,4.67778 -3.504596,7.51566 -6.702557,6.30738 z m 2.847478,-19.07135 c 1.048237,-1.958646 3.105351,-3.412825 3.818718,-2.699459 0.876556,0.876557 -1.593482,3.258212 -3.385436,3.2643 -0.671669,0.0024 -0.710031,-0.04773 -0.433282,-0.564841 z m -3.808137,0.271013 c -2.203934,-1.130083 -3.175942,-3.931565 -1.089163,-3.139146 0.583557,0.221594 3.024785,2.80384 3.024785,3.199508 0,0.332491 -1.245195,0.293659 -1.935622,-0.06036 z m 19.55475,37.470287 c -0.53845,-0.82176 -0.14894,-0.86338 1.06409,-0.11369 1.18719,0.73372 1.52775,0.47005 1.32294,-1.02425 -0.26513,-1.93434 -1.95263,-4.4537 -2.56977,-3.83656 -0.18132,0.18131 -0.0618,0.51646 0.36877,1.03389 1.30843,1.57248 1.77136,3.31498 0.73307,2.7593 -1.70708,-0.9136 -3.31484,0.08 -2.05086,1.26749 0.91841,0.8628 1.71386,0.80223 1.13176,-0.0862 z m -19.87488,-0.11915 c 2.025081,-3.91607 -3.522173,-7.79166 -5.750645,-4.01768 -1.059548,1.79436 -0.752176,4.79829 0.490974,4.79829 0.635656,0 0.647343,-0.027 0.254384,-0.58804 -1.316323,-1.87931 0.166772,-4.96821 2.38543,-4.96821 2.00011,0 2.957534,4.63617 1.110864,5.37917 -0.184962,0.0744 -0.01193,0.14471 0.384514,0.15619 0.541607,0.0157 0.821168,-0.17318 1.124479,-0.75972 z m -13.09008,0.47754 c 0.363802,-0.14824 1.162293,-0.20322 1.774425,-0.12216 1.219914,0.16153 1.715611,-0.1813 0.896212,-0.61983 -0.73407,-0.39286 -2.263417,-0.34455 -3.340594,0.10552 -0.527643,0.22046 -0.917543,0.27157 -0.917543,0.12027 0,-0.34892 1.223539,-1.56198 1.575474,-1.56198 0.507169,0 0.284853,-0.53675 -0.340291,-0.82159 -0.466344,-0.21248 -0.853784,-0.1821 -1.5875,0.12447 -0.533831,0.22305 -0.9706,0.29958 -0.9706,0.17007 0,-0.32589 0.472784,-0.58658 1.41233,-0.77874 1.238602,-0.25332 1.208452,-0.81087 -0.04384,-0.81087 -1.331492,0 -2.426819,1.13658 -2.426819,2.51822 0,1.16647 0.312854,1.31801 1.065993,0.51633 0.731983,-0.77916 1.17924,-0.85874 0.795398,-0.14153 -0.770805,1.44026 0.238096,2.06351 2.107359,1.30182 z m -5.917663,-0.9537 c -0.146368,-1.11485 -0.06113,-1.94946 0.540456,-5.29166 0.135684,-0.75382 0.08385,-0.8599 -0.420161,-0.8599 -0.570203,0 -0.569066,-0.01 0.137869,-1.21631 0.735277,-1.25466 0.637731,-1.64623 -0.425918,-1.70968 -0.218281,-0.013 -0.873122,-0.23873 -1.455212,-0.50158 l -1.05833,-0.4779 0.74335,-0.19657 c 0.73992,-0.19566 2.421924,-0.0634 3.556129,0.27956 0.443937,0.13425 0.595313,0.0726 0.595313,-0.24235 0,-0.46099 -2.494349,-2.01411 -3.241142,-2.01811 -0.72581,-0.004 -0.54455,-0.48972 0.39687,-1.06372 0.590496,-0.36003 1.331636,-0.5246 2.365635,-0.52528 1.500188,-0.001 2.197804,-0.38126 1.504723,-0.82026 -0.503529,-0.31892 -1.626968,-0.29523 -3.055345,0.0644 -1.990893,0.50131 -4.299843,3.1455 -2.572473,2.94597 1.26944,-0.14664 1.18289,0.27568 -0.13974,0.68185 -1.99653,0.61312 -1.96911,0.95707 0.15433,1.9357 0.99496,0.45855 1.849279,0.86452 1.898489,0.90217 0.04921,0.0376 -0.218679,0.59427 -0.595309,1.23694 -0.85449,1.45808 -0.85875,1.78346 -0.0233,1.78346 0.3638,0 0.661459,0.0665 0.661459,0.14776 0,0.0813 -0.130445,0.98849 -0.289879,2.01605 -0.34912,2.25012 -0.13061,4.18619 0.472468,4.18619 0.341558,0 0.385632,-0.22178 0.249748,-1.25677 z"
       id="path181" /></g></svg>
